<svg width="30" height="30" viewBox="0 0 24 24" fill="none" xmlns="http://www.w3.org/2000/svg">
<mask id="mask0_559_21404" style="mask-type:alpha" maskUnits="userSpaceOnUse" x="0" y="0" width="24" height="24">
<rect width="24" height="24" fill="#D9D9D9"/>
</mask>
<g mask="url(#mask0_559_21404)">
<path fill-rule="evenodd" clip-rule="evenodd" d="M20.3547 9.02222H19.2623C19.1163 7.16826 18.3512 5.45797 17.0597 4.14629C15.6179 2.69092 13.7249 1.9308 11.7169 2.00496C8.0858 2.13937 5.09155 5.21695 4.71561 9.02222H3.63644C2.73419 9.02222 2 9.78699 2 10.7371V14.1484C2 15.094 2.72977 15.8634 3.63644 15.8634H5.62671H5.69306V15.7475V9.83333C5.69306 6.232 8.41309 3.19613 11.7567 3.07562C13.4728 3.01073 15.1137 3.66426 16.3565 4.92032C17.5949 6.17638 18.2804 7.85886 18.2804 9.66648V13.6618C18.2804 16.4103 16.4228 18.7092 13.9549 19.2608C13.6586 18.6258 13.0394 18.1808 12.3229 18.1808H11.3277C10.3238 18.1808 9.50553 19.0429 9.50553 20.0904C9.50553 21.1379 10.3282 22 11.3277 22H12.3229C13.2561 22 14.0212 21.2538 14.1274 20.3083C16.383 19.8216 18.2096 18.102 18.9438 15.8587H20.3636C21.2658 15.8587 22 15.094 22 14.1438V10.7325C22 9.78699 21.2702 9.01759 20.3636 9.01759L20.3547 9.02222ZM13.8575 10.0056V8.38685L12.7119 10.0056H13.8575ZM6.84299 9.4837C6.84299 6.63983 9.14727 4.33112 11.9956 4.33112C14.8394 4.33112 17.1481 6.63983 17.1481 9.4837C17.1481 12.3276 14.8394 14.6363 11.9956 14.6363C9.1517 14.6363 6.84299 12.3276 6.84299 9.4837ZM8.85537 11.3944H11.571V11.3899V10.784H9.88146L10.1955 10.5009C10.4476 10.2931 10.6687 10.1029 10.8677 9.92598C11.0624 9.74465 11.2172 9.56331 11.3321 9.37755C11.4471 9.1918 11.5046 8.98392 11.5046 8.75836C11.5046 8.51068 11.4427 8.29839 11.3233 8.12147C11.2039 7.94456 11.0447 7.81188 10.8456 7.71458C10.6466 7.6217 10.4299 7.57305 10.1911 7.57305C9.97876 7.57305 9.79743 7.604 9.63821 7.67035C9.47899 7.73669 9.35072 7.82072 9.249 7.92687C9.14727 8.03302 9.06766 8.14359 9.00574 8.263C8.94825 8.38242 8.90402 8.49741 8.87748 8.60798C8.85095 8.71855 8.83768 8.81143 8.83768 8.88662H9.5011C9.5011 8.84682 9.50994 8.78932 9.52764 8.71413C9.54533 8.63452 9.57629 8.55491 9.62051 8.4753C9.66474 8.39569 9.73551 8.32492 9.82396 8.26743C9.91242 8.20993 10.0318 8.17897 10.1778 8.17897C10.2839 8.17897 10.3857 8.20109 10.483 8.24974C10.5847 8.29839 10.6643 8.36473 10.7262 8.45761C10.7881 8.55049 10.8191 8.66106 10.8191 8.78932C10.8191 8.95739 10.766 9.11661 10.6643 9.25814C10.5626 9.39967 10.4166 9.55447 10.2309 9.71369C10.1144 9.81631 9.98224 9.92936 9.83663 10.0539C9.75004 10.128 9.65868 10.2062 9.56302 10.2887L8.85537 10.9167V11.3944ZM14.5475 10.5894H15.1579V10.0056H14.5475V7.62612H13.6984L12.0354 9.97906V10.5894H13.862V11.3944H14.5475V10.5894Z" fill="#001A52"/>
</g>
</svg>
