<svg width="58" height="48" viewBox="0 0 24 24" fill="none" xmlns="http://www.w3.org/2000/svg">
  <mask id="mask0_3971_79191" style="mask-type:alpha" maskUnits="userSpaceOnUse" x="0" y="0" width="24" height="24">
    <rect width="24" height="24" fill="#D9D9D9"/>
  </mask>
  <g mask="url(#mask0_3971_79191)">
    <path d="M12.3107 2.60973L13.9415 7.62787C14.0576 7.99081 14.4012 8.2376 14.7835 8.2376H20.0581C20.9146 8.2376 21.2727 9.33124 20.5759 9.8345L16.3078 12.9364C15.9981 13.1638 15.8674 13.5606 15.9884 13.9235L17.6192 18.9417C17.8853 19.7547 16.9514 20.4321 16.2594 19.9289L11.9913 16.827C11.6816 16.5996 11.2606 16.5996 10.9509 16.827L6.68281 19.9289C5.99081 20.4321 5.05687 19.7547 5.32302 18.9417L6.95379 13.9235C7.06993 13.5606 6.94412 13.159 6.63441 12.9364L2.36633 9.8345C1.67434 9.33124 2.02759 8.2376 2.88411 8.2376H8.15873C8.54102 8.2376 8.87976 7.99081 9.00073 7.62787L10.6267 2.60973C10.8928 1.79676 12.0445 1.79676 12.3107 2.60973Z" fill="url(#paint0_linear_3971_79191)"/>
    <path d="M21.0308 11.8669H10.0073C9.47019 11.8669 9.03467 12.3024 9.03467 12.8396V21.0322C9.03467 21.5693 9.47019 22.0048 10.0073 22.0048H21.026C21.5631 22.0048 21.9986 21.5693 21.9986 21.0322V12.8347C21.9986 12.2976 21.5631 11.8621 21.026 11.8621L21.0308 11.8669ZM15.6304 20.0595L15.1852 18.7433H12.6688L12.2236 20.0595H11.0235L13.1769 13.8122H14.6722L16.8353 20.0595H15.6352H15.6304ZM20.0194 17.8722H18.7709V19.1207H17.866V17.8722H16.6175V16.9673H17.866V15.7188H18.7709V16.9673H20.0194V17.8722ZM12.9931 17.7464H14.8513L13.9222 14.9881L12.9931 17.7464Z" fill="#004047"/>
  </g>
  <defs>
    <linearGradient id="paint0_linear_3971_79191" x1="11.4785" y1="20.246" x2="11.4785" y2="2.44631" gradientUnits="userSpaceOnUse">
      <stop stop-color="#F6FBFB"/>
      <stop offset="1" stop-color="#27D9E5"/>
    </linearGradient>
  </defs>
</svg>
