<svg width="58" height="58" viewBox="0 0 24 24" fill="none" xmlns="http://www.w3.org/2000/svg">
<mask id="mask0_3971_79198" style="mask-type:alpha" maskUnits="userSpaceOnUse" x="0" y="0" width="24" height="24">
<rect width="24" height="24" fill="#D9D9D9"/>
</mask>
<g mask="url(#mask0_3971_79198)">
<path d="M16.0431 2H3.95016C2.87104 2 2 2.87104 2 3.95016V16.0431C2 17.1222 2.87104 17.9932 3.95016 17.9932H16.0431C17.1222 17.9932 17.9932 17.1222 17.9932 16.0431V3.95016C17.9932 2.87104 17.1222 2 16.0431 2ZM7.87951 9.93612C7.77788 10.0377 7.64239 10.0958 7.49722 10.0958C7.35204 10.0958 7.21655 10.0377 7.11493 9.93612L4.32761 7.1488L5.09218 6.38422L7.49238 8.78442L12.0121 4.26954L12.7767 5.03412L7.87951 9.93612Z" fill="url(#paint0_linear_3971_79198)"/>
<path d="M16.6287 9.99415C15.0609 9.99415 13.7833 11.2717 13.7833 12.8395C13.7833 14.4074 15.0609 15.6849 16.6287 15.6849C18.1966 15.6849 19.4741 14.4074 19.4741 12.8395C19.4741 11.2717 18.1966 9.99415 16.6287 9.99415ZM21.0033 11.0297C20.7468 10.4103 20.892 9.51024 20.4274 9.04085C19.9629 8.57629 19.058 8.72147 18.4385 8.46499C17.8433 8.2182 17.311 7.46814 16.6287 7.46814C15.9464 7.46814 15.4141 8.2182 14.8189 8.46499C14.1995 8.72147 13.2994 8.57629 12.83 9.04085C12.3655 9.5054 12.5107 10.4103 12.2542 11.0297C12.0074 11.6249 11.2573 12.1572 11.2573 12.8395C11.2573 13.5219 12.0074 14.0542 12.2542 14.6494C12.5107 15.2688 12.3655 16.1688 12.83 16.6382C13.1494 16.9576 13.6817 16.9915 14.1801 17.0641V22.0048L16.6287 21.0467L19.0773 22.0048V17.0641C19.5757 16.9915 20.108 16.9625 20.4274 16.6382C20.892 16.1737 20.7468 15.2688 21.0033 14.6494C21.2501 14.0542 22.0001 13.5219 22.0001 12.8395C22.0001 12.1572 21.2501 11.6249 21.0033 11.0297ZM16.6287 16.5656C14.5721 16.5656 12.9026 14.8962 12.9026 12.8395C12.9026 10.7829 14.5721 9.11343 16.6287 9.11343C18.6853 9.11343 20.3548 10.7829 20.3548 12.8395C20.3548 14.8962 18.6853 16.5656 16.6287 16.5656Z" fill="#004047"/>
</g>
<defs>
<linearGradient id="paint0_linear_3971_79198" x1="10.0019" y1="18.1208" x2="10.0019" y2="2.39432" gradientUnits="userSpaceOnUse">
<stop stop-color="#F6FBFB"/>
<stop offset="1" stop-color="#27D9E5"/>
</linearGradient>
</defs>
</svg>
