<svg width="30" height="30" viewBox="0 0 21 20" fill="none" xmlns="http://www.w3.org/2000/svg">
<path d="M11 12.04C14.33 12.04 17.02 9.34 17.02 6.02C17.02 2.7 14.33 0 11 0C7.66998 0 4.97998 2.7 4.97998 6.02C4.97998 9.34 7.67998 12.04 11 12.04ZM11 11.25C10.7 11.25 10.46 11.01 10.46 10.71C10.46 10.41 10.7 10.17 11 10.17C11.3 10.17 11.54 10.41 11.54 10.71C11.54 11.01 11.3 11.25 11 11.25ZM15.69 5.47C15.99 5.47 16.23 5.71 16.23 6.01C16.23 6.31 15.99 6.55 15.69 6.55C15.39 6.55 15.15 6.31 15.15 6.01C15.15 5.71 15.39 5.47 15.69 5.47ZM10.55 4.89V1.2H11.43V4.9C11.74 5.02 11.98 5.27 12.11 5.58H14.54V6.46H12.11C11.93 6.91 11.5 7.22 10.99 7.22C10.32 7.22 9.77998 6.68 9.77998 6.01C9.77998 5.5 10.1 5.07 10.54 4.89H10.55ZM6.29998 6.55C5.99998 6.55 5.75998 6.31 5.75998 6.01C5.75998 5.71 5.99998 5.47 6.29998 5.47C6.59998 5.47 6.83998 5.71 6.83998 6.01C6.83998 6.31 6.59998 6.55 6.29998 6.55ZM19.7 12.99C18.78 12.17 17.42 11.76 16.16 11.92C13.51 12.25 11.79 13.92 10.99 14.91C10.19 13.93 8.46998 12.25 5.81998 11.92C4.55998 11.77 3.20998 12.18 2.27998 12.99C1.42998 13.74 0.97998 14.76 0.97998 15.94C0.97998 17.12 1.42998 18.14 2.27998 18.89C3.07998 19.59 4.18998 19.99 5.27998 19.99C5.45998 19.99 5.63998 19.98 5.80998 19.96C8.45998 19.63 10.18 17.96 10.98 16.97C11.78 17.95 13.5 19.63 16.15 19.96C16.33 19.98 16.5 19.99 16.68 19.99C17.77 19.99 18.89 19.59 19.68 18.89C20.53 18.14 20.98 17.12 20.98 15.94C20.98 14.76 20.53 13.74 19.68 12.99H19.7ZM5.67998 18.75C4.75998 18.87 3.76998 18.57 3.09998 17.97C2.51998 17.46 2.21998 16.75 2.21998 15.93C2.21998 15.11 2.52998 14.4 3.09998 13.89C3.67998 13.38 4.48998 13.09 5.28998 13.09C5.41998 13.09 5.54998 13.09 5.67998 13.11C8.15998 13.42 9.71998 15.2 10.26 15.93C9.71998 16.66 8.16998 18.43 5.67998 18.74V18.75ZM18.9 17.97C18.23 18.56 17.24 18.86 16.32 18.75C13.84 18.44 12.28 16.66 11.74 15.93C12.28 15.2 13.83 13.43 16.32 13.12C17.24 13 18.23 13.3 18.9 13.9C19.48 14.41 19.78 15.12 19.78 15.94C19.78 16.76 19.47 17.47 18.9 17.98V17.97Z" fill="#001A52"/>
</svg>
