<svg width="30" height="30" viewBox="0 0 24 24" fill="none" xmlns="http://www.w3.org/2000/svg">
<mask id="mask0_559_21384" style="mask-type:alpha" maskUnits="userSpaceOnUse" x="0" y="0" width="24" height="24">
<rect width="24" height="24" fill="#D9D9D9"/>
</mask>
<g mask="url(#mask0_559_21384)">
<path d="M21.9945 11.4029H17.9734C17.9235 9.53348 17.6406 7.80357 17.1803 6.29688C17.8846 5.92857 18.5502 5.48214 19.1658 4.96317C20.7965 6.64844 21.8502 8.9029 21.9945 11.4029ZM12.5879 2C13.8303 2.33482 14.9395 3.70759 15.7105 5.67746C14.7232 6.07366 13.6694 6.30246 12.5879 6.36942V2ZM15.2169 2.45759C16.3428 2.84263 17.3744 3.42299 18.284 4.1596C17.8125 4.54464 17.3134 4.87946 16.7865 5.16406C16.3594 4.09263 15.827 3.17188 15.2169 2.45759ZM11.4121 2V6.36942C10.3306 6.30804 9.27676 6.07366 8.28952 5.67746C9.06045 3.70759 10.1697 2.33482 11.4121 2ZM7.21353 5.16406C6.68663 4.87388 6.18747 4.53906 5.71603 4.1596C6.62008 3.42299 7.65724 2.84263 8.77759 2.45759C8.17305 3.17746 7.6406 4.09263 7.20799 5.16406H7.21353ZM11.4121 7.56362V11.4029H7.20244C7.25236 9.73996 7.50194 8.1663 7.90682 6.79911C9.02163 7.23996 10.203 7.49665 11.4121 7.56362ZM11.4121 12.5859V16.4252C10.1974 16.4866 9.01608 16.7489 7.90682 17.1897C7.50194 15.8225 7.25236 14.2545 7.20244 12.5859H11.4121ZM11.4121 17.6138V21.9888C10.1697 21.654 9.05491 20.2812 8.28397 18.3058C9.27121 17.9096 10.325 17.6752 11.4121 17.6083V17.6138ZM8.78314 21.5368C7.65724 21.1518 6.62008 20.5714 5.71048 19.8292C6.18192 19.4442 6.68109 19.1094 7.20799 18.8192C7.6406 19.8962 8.1675 20.817 8.77759 21.5312L8.78314 21.5368ZM12.5879 21.9944V17.6194C13.6694 17.6808 14.7232 17.9208 15.7105 18.317C14.9395 20.2924 13.8303 21.6652 12.5879 22V21.9944ZM16.792 18.8248C17.3189 19.115 17.8181 19.4498 18.2895 19.8348C17.3799 20.5714 16.3428 21.1518 15.2169 21.5424C15.827 20.8225 16.3594 19.9018 16.7865 18.8248H16.792ZM12.5879 16.4308V12.5915H16.7976C16.7476 14.2545 16.4981 15.8281 16.0932 17.1953C14.9839 16.7545 13.8026 16.4978 12.5879 16.4308ZM12.5879 11.4085V7.5692C13.8026 7.50781 14.9839 7.24554 16.0932 6.80469C16.4981 8.17188 16.7476 9.73996 16.7976 11.4085H12.5879ZM4.82862 4.96875C5.44426 5.48772 6.10982 5.92857 6.8142 6.30246C6.35385 7.80915 6.07099 9.53906 6.02108 11.4085H2C2.1442 8.90848 3.198 6.65402 4.82862 4.96875ZM2 12.5859H6.02108C6.07099 14.4554 6.35385 16.1853 6.8142 17.692C6.11536 18.0603 5.44981 18.5067 4.83417 19.0257C3.198 17.3404 2.1442 15.0859 2 12.5859ZM19.1658 19.0257C18.5502 18.5067 17.8846 18.0603 17.1858 17.692C17.6461 16.1853 17.929 14.4554 17.9789 12.5859H22C21.8558 15.0859 20.802 17.3404 19.1714 19.0257H19.1658Z" fill="#001A52"/>
</g>
</svg>
