<svg width="58" height="58" viewBox="0 0 24 24" fill="none" xmlns="http://www.w3.org/2000/svg">
<mask id="mask0_534_17905" style="mask-type:alpha" maskUnits="userSpaceOnUse" x="0" y="0" width="24" height="24">
<rect width="24" height="24" fill="#D9D9D9"/>
</mask>
<g mask="url(#mask0_534_17905)">
</g>
<g clip-path="url(#clip0_534_17905)">
<path d="M8.67636 8.32364C8.67636 8.56 8.76 8.75273 8.92364 8.89454C9.09091 9.03636 9.34545 9.15273 9.69818 9.24727V7.29091C9.38182 7.34545 9.13091 7.46545 8.94909 7.65455C8.76727 7.84364 8.67636 8.06545 8.67636 8.32364ZM11.2655 10.9491C11.08 10.8073 10.8182 10.6909 10.48 10.6073V12.6727C10.7891 12.6145 11.0473 12.4873 11.2436 12.2909C11.4436 12.0945 11.5418 11.8545 11.5418 11.5709C11.5418 11.2873 11.4509 11.0945 11.2655 10.9491ZM10.0109 2C5.58545 2 2 5.58545 2 10.0109C2 14.4364 5.58545 18.0218 10.0109 18.0218C14.4364 18.0218 18.0218 14.4364 18.0218 10.0109C18.0218 5.58545 14.4327 2 10.0109 2ZM12.52 12.6255C12.3236 12.9382 12.0509 13.1964 11.7018 13.3927C11.3527 13.5927 10.9455 13.7127 10.48 13.76V14.6436H9.69454V13.76C9.2 13.72 8.79273 13.6145 8.48 13.4436C8.16727 13.2727 7.92 13.0691 7.74545 12.8327C7.57091 12.5964 7.44364 12.3673 7.36727 12.1418C7.29091 11.9164 7.23636 11.6545 7.20364 11.3564H8.50182C8.53454 11.5891 8.58909 11.7818 8.66182 11.9382C8.73455 12.0945 8.85091 12.24 9.01455 12.3782C9.17818 12.5164 9.40364 12.6145 9.69454 12.6655V10.4327L9.63636 10.4145C9.25818 10.3345 8.90182 10.2218 8.56 10.0727C8.21818 9.92364 7.94182 9.71273 7.73091 9.44364C7.52 9.17091 7.41455 8.81091 7.41455 8.36364C7.41455 7.94545 7.52 7.58545 7.72727 7.28364C7.93455 6.97818 8.21091 6.73818 8.55636 6.56364C8.90182 6.38909 9.28 6.28 9.69818 6.24V5.37818H10.4836V6.26182C10.9127 6.30909 11.2691 6.41091 11.5455 6.57455C11.8218 6.73818 12.04 6.92364 12.2 7.13091C12.36 7.33818 12.4764 7.54182 12.5527 7.73455C12.6291 7.93091 12.6873 8.16 12.7273 8.42545H11.4473C11.4145 8.24727 11.3673 8.09454 11.3091 7.96727C11.2509 7.84 11.1527 7.72 11.0218 7.6C10.8909 7.48 10.7091 7.39273 10.4873 7.33091V9.42545L10.5964 9.45455C10.84 9.50909 11.0945 9.57454 11.3491 9.65818C11.6073 9.74182 11.8473 9.85818 12.0691 10.0109C12.2909 10.1636 12.4691 10.3636 12.6109 10.6109C12.7491 10.8582 12.8182 11.1709 12.8182 11.5491C12.8182 11.9527 12.72 12.3127 12.5273 12.6255H12.52Z" fill="url(#paint0_linear_534_17905)"/>
<path d="M21.9091 15.5673C21.8764 15.3782 21.6945 15.2545 21.5091 15.2873L20.9891 15.3818C21.1054 15.2836 21.1709 15.1345 21.1418 14.9745L20.7673 13.0291C20.7236 12.7964 20.4982 12.6436 20.2654 12.6909L18.32 13.0654C18.0873 13.1091 17.9345 13.3345 17.9818 13.5673L18.3564 15.5127C18.3854 15.6545 18.48 15.76 18.6036 15.8145L12.04 17.0036C12.8473 16.7091 13.4218 15.9382 13.4218 15.0291C13.4218 13.8691 12.48 12.9273 11.32 12.9273C10.16 12.9273 9.21454 13.8691 9.21454 15.0291C9.21454 16.1891 10.1564 17.1309 11.32 17.1309H11.3273L9.86545 17.3964C9.67636 17.4291 9.55272 17.6109 9.58545 17.7964L9.67272 18.2727C9.70545 18.4618 9.88727 18.5854 10.0727 18.5527L15.8036 17.5164L13.5854 21.5564C13.4764 21.7564 13.6218 22.0036 13.8509 22.0036H17.8982C18.1273 22.0036 18.2727 21.7564 18.1636 21.5564L15.9345 17.4945L21.72 16.4473C21.9091 16.4145 22.0327 16.2327 22 16.0473L21.9127 15.5709L21.9091 15.5673Z" fill="#004047"/>
</g>
<defs>
<linearGradient id="paint0_linear_534_17905" x1="10.0093" y1="18.1529" x2="10.0093" y2="2.39326" gradientUnits="userSpaceOnUse">
<stop stop-color="#F6FBFB"/>
<stop offset="1" stop-color="#27D9E5"/>
</linearGradient>
<clipPath id="clip0_534_17905">
<rect width="20" height="20" fill="white" transform="translate(2 2)"/>
</clipPath>
</defs>
</svg>
